# xmcd CD database file
#
# Track frame offsets:
#	150
#	13625
#	27938
#	42563
#	56993
#	70783
#	86225
#	99823
#	118650
#	133783
#	147410
#	162230
#	177495
#	189570
#
# Disc length: 2692 seconds
#
# Revision: 0
# Processed by: cddbd v1.4PL0 Copyright (c) Steve Scherf et al.
# Submitted via: CDex 1.50beta10
#
DISCID=ca0a820e
DTITLE=Diverse - NEDERCOUNTRY
DYEAR=1994
DGENRE=Country
TTITLE0=Nick Mackenzie and Joëll - Turning over new leaves
TTITLE1=Nancy - Shake de sugar tree
TTITLE2=Jack Jersey - Papa was a poor man
TTITLE3=Nancy - The graetest man
TTITLE4=Nick Mackenzie and Joëll - Devil woman
TTITLE5=The Harmonicaman - Bakerstreet
TTITLE6=Nancy - A little bit of love
TTITLE7=Nick Mackenzie - Peaches a tree
TTITLE8=Nick Mackenzie and Joëll - Lucille
TTITLE9=Nancy - One time around
TTITLE10=The Harmonicaman - Desperado
TTITLE11=Mark and Mirella - Achy braeky heart
TTITLE12=Nick Mackenzie and Joëll - I'd rather be sorry
TTITLE13=Nancy - As long as you belong to me
EXTD=YEAR: 1994
EXTT0=
EXTT1=
EXTT2=
EXTT3=
EXTT4=
EXTT5=
EXTT6=
EXTT7=
EXTT8=
EXTT9=
EXTT10=
EXTT11=
EXTT12=
EXTT13=
PLAYORDER=
